<svg xmlns="http://www.w3.org/2000/svg" data-name="Layer 1" viewBox="0 0 128 128"><path d="M35.80566,27.91577a27.7157,27.7157,0,1,0,55.42792.00006c0-10.08148-5.8963-20.17474-14.78479-24.78131A28.55483,28.55483,0,0,0,52.93823,2.01324,28.0891,28.0891,0,0,0,35.80566,27.91577ZM62.34625,3.9231A4.78591,4.78591,0,0,1,65.40009,5.4472a4.23379,4.23379,0,0,1,0,5.68506,2.32645,2.32645,0,0,1-3.40961,0,1.96616,1.96616,0,0,0-2.79877-.08307A2.01813,2.01813,0,0,0,59.11,13.879a6.203,6.203,0,0,0,9.17047,0,8.34873,8.34873,0,0,0,1.35272-9.17554,23.42258,23.42258,0,0,1,4.75024,1.85986c.81848,1.10449,1.32416,2.8681.79315,3.96973a1.19875,1.19875,0,0,1-.21362.32452.7995.7995,0,0,1-.08893-.086,1.96469,1.96469,0,0,0-2.79681-.11731,2.01775,2.01775,0,0,0-.11646,2.82886,4.091,4.091,0,0,0,3.01764,1.42029,3.66088,3.66088,0,0,0,.53552-.03912,4.36367,4.36367,0,0,0,3.22162-2.57666,6.38746,6.38746,0,0,0,.60278-2.27368A23.68925,23.68925,0,1,1,62.34625,3.9231Z"/><path d="M50.6524 27.91577H52.632a2.002 2.002 0 0 0 0-4.00378H50.6524a2.002 2.002 0 0 0 0 4.00378zM74.40723 27.91577h1.97955a2.002 2.002 0 0 0 0-4.00378H74.40723a2.002 2.002 0 0 0 0 4.00378zM58.49481 42.11676a10.23292 10.23292 0 0 0 10.04767-.001 2.0154 2.0154 0 0 0 .60553-2.76434 1.96775 1.96775 0 0 0-2.733-.61194 6.49727 6.49727 0 0 1-5.78894.00293 1.96735 1.96735 0 0 0-2.73395.61A2.015 2.015 0 0 0 58.49481 42.11676zM106.30023 93.40955l-3.00079-2.49066a12.758 12.758 0 0 0-9.92346-2.819 12.89272 12.89272 0 0 0-8.82635 5.56873l-8.59149 13.99475a13.32353 13.32353 0 0 0-1.85455 3.47217 19.90952 19.90952 0 0 0-4.17987 1.23248 19.464 19.464 0 0 1-2.97076.96478 19.2809 19.2809 0 0 1-6.959-.03326 30.48067 30.48067 0 0 1-3.98328-1.0498c-.63324-.19714-1.28534-.39233-1.94452-.57788a13.167 13.167 0 0 0-2.02429-4.00848L43.39819 93.58844a12.731 12.731 0 0 0-18.69812-2.66956l-3.00079 2.49066a13.10937 13.10937 0 0 0-1.03955 19.14319l12.73767 12.3457A11.45875 11.45875 0 0 0 41.2345 128a14.23347 14.23347 0 0 0 8.32758-2.8631l.04736-.03809a13.10745 13.10745 0 0 0 4.9444-9.10828c.09979.03082.19208.05457.29309.086a33.84308 33.84308 0 0 0 4.50574 1.174 23.17424 23.17424 0 0 0 8.38171.00781 22.70392 22.70392 0 0 0 3.5899-1.14563c.717-.27441 1.41-.53271 2.08838-.73431a13.00019 13.00019 0 0 0 4.97784 9.7204l.04736.03809a14.176 14.176 0 0 0 8.30444 2.85333 11.57389 11.57389 0 0 0 7.91443-3.14264L107.3949 112.498a13.1115 13.1115 0 0 0-1.09467-19.08844zM105.6366 87.69391a2.00363 2.00363 0 0 0 .12622-.48065C108.3927 65.31451 93.895 53.17377 87.41449 48.90448a32.13587 32.13587 0 0 1-2.81659 2.892c5.21082 3.16693 19.13953 13.59558 17.35852 33.65289A16.69563 16.69563 0 0 1 105.6366 87.69391zM21.27643 87.21326a2.00073 2.00073 0 0 0 .42523 1.015l.48669-.40405a16.70876 16.70876 0 0 1 2.93536-1.95093C23.10687 65.53534 37.198 54.98254 42.44147 51.79663a32.12293 32.12293 0 0 1-2.81677-2.89215C33.14423 53.17377 18.64648 65.31451 21.27643 87.21326z"/><path d="M63.52,91.98a1.99752,1.99752,0,0,0,1.98-2.01V78.81c8.89-1.33,15.84-11.53,15.84-23.87,0-.02142-.00708-.04047-.00806-.06152a31.90349,31.90349,0,0,1-35.05286-.24957A1.69543,1.69543,0,0,1,45.76,54.48a2.31446,2.31446,0,0,0-.06.46c0,12.34,6.94,22.54,15.84,23.87V89.97A1.99753,1.99753,0,0,0,63.52,91.98Zm0-30.03a2.0001,2.0001,0,1,1-1.98,2A1.98884,1.98884,0,0,1,63.52,61.95Zm0,6a2.00513,2.00513,0,1,1-1.98,2A1.99526,1.99526,0,0,1,63.52,67.95Z"/></svg>