<svg xmlns="http://www.w3.org/2000/svg" enable-background="new 0 0 32 32" viewBox="0 0 32 32"><path d="M29,6H3C2.4,6,2,6.4,2,7v18c0,0.6,0.4,1,1,1h26c0.6,0,1-0.4,1-1V7C30,6.4,29.6,6,29,6z M28,24H4V8h24V24z
			"/><path d="M6.5,11.9l9,4.9C15.7,17,15.8,17,16,17s0.3,0,0.5-0.1l9-4.9c0.5-0.3,0.7-0.9,0.4-1.4
			c-0.3-0.5-0.9-0.7-1.4-0.4L16,14.9l-8.5-4.7C7,9.9,6.4,10.1,6.1,10.6S6,11.7,6.5,11.9z"/><g display="none"><text><tspan x="0" y="0" font-family="MyriadPro-Regular" font-size="12">&lt;nyt_prefs&gt;</tspan><tspan x="0" y="14.4" font-family="MyriadPro-Regular" font-size="12"> &lt;nyt_prefix&gt;&lt;/nyt_prefix&gt;</tspan><tspan x="0" y="28.8" font-family="MyriadPro-Regular" font-size="12"> &lt;nyt_suffix&gt;&lt;/nyt_suffix&gt;</tspan><tspan x="0" y="43.2" font-family="MyriadPro-Regular" font-size="12"> &lt;nyt_base_path&gt;~/Desktop&lt;/nyt_base_path&gt;</tspan><tspan x="0" y="57.6" font-family="MyriadPro-Regular" font-size="12"> &lt;nyt_scaling&gt;100&lt;/nyt_scaling&gt;</tspan><tspan x="0" y="72" font-family="MyriadPro-Regular" font-size="12"> &lt;nyt_transparency&gt;true&lt;/nyt_transparency&gt;</tspan><tspan x="0" y="86.4" font-family="MyriadPro-Regular" font-size="12"> &lt;nyt_embedImage&gt;true&lt;/nyt_embedImage&gt;</tspan><tspan x="0" y="100.8" font-family="MyriadPro-Regular" font-size="12"> &lt;nyt_embedFont&gt;true&lt;/nyt_embedFont&gt;</tspan><tspan x="0" y="115.2" font-family="MyriadPro-Regular" font-size="12"> &lt;nyt_trimEdges&gt;true&lt;/nyt_trimEdges&gt;</tspan><tspan x="0" y="129.6" font-family="MyriadPro-Regular" font-size="12"> &lt;nyt_innerPadding&gt;false&lt;/nyt_innerPadding&gt;</tspan><tspan x="0" y="144" font-family="MyriadPro-Regular" font-size="12"> &lt;nyt_format&gt;SVG&lt;/nyt_format&gt;</tspan><tspan x="0" y="158.4" font-family="MyriadPro-Regular" font-size="12"> &lt;nyt_artboards&gt;all&lt;/nyt_artboards&gt;</tspan><tspan x="0" y="172.8" font-family="MyriadPro-Regular" font-size="12"> &lt;nyt_layers&gt;all&lt;/nyt_layers&gt;</tspan><tspan x="0" y="187.2" font-family="MyriadPro-Regular" font-size="12"> &lt;nyt_exportArtboards&gt;false&lt;/nyt_exportArtboards&gt;</tspan><tspan x="0" y="201.6" font-family="MyriadPro-Regular" font-size="12"> &lt;nyt_ignoreWarnings&gt;false&lt;/nyt_ignoreWarnings&gt;</tspan><tspan x="0" y="216" font-family="MyriadPro-Regular" font-size="12">&lt;/nyt_prefs&gt;</tspan></text></g></svg>