<?xml version="1.0" encoding="UTF-8"?><!DOCTYPE svg PUBLIC "-//W3C//DTD SVG 1.1//EN" "http://www.w3.org/Graphics/SVG/1.1/DTD/svg11.dtd"><svg xmlns="http://www.w3.org/2000/svg" xmlns:xlink="http://www.w3.org/1999/xlink" version="1.1" width="16" height="16" viewBox="0 0 16 16"><path fill="#444" d="M14.9 1.1c-1.4-1.4-3.7-1.4-5.1 0L5.4 5.4C4 6.9 4 9.1 5.4 10.6c.1.1.3.2.4.3l1.5-1.5c-.1-.1-.3-.2-.4-.3-.6-.6-.6-1.6 0-2.2l4.4-4.4c.6-.6 1.6-.6 2.2 0s.6 1.6 0 2.2L12.2 6c.4.8.5 1.7.4 2.5l2.3-2.3c1.5-1.4 1.5-3.7 0-5.1z"/><path fill="#444" d="M10.2 5.1L8.7 6.6s.3.2.4.3c.6.6.6 1.6 0 2.2l-4.4 4.4c-.6.6-1.6.6-2.2 0s-.6-1.6 0-2.2L3.8 10c-.4-.8-.1-1.3-.4-2.5L1.1 9.8c-1.4 1.4-1.4 3.7 0 5.1s3.7 1.4 5.1 0l4.4-4.4c1.4-1.4 1.4-3.7 0-5.1-.2-.1-.4-.3-.4-.3z"/><metadata><rdf:RDF xmlns:rdf="http://www.w3.org/1999/02/22-rdf-syntax-ns#" xmlns:rdfs="http://www.w3.org/2000/01/rdf-schema#" xmlns:dc="http://purl.org/dc/elements/1.1/"><rdf:Description about="https://iconscout.com/legal#licenses" dc:title="link" dc:description="link" dc:publisher="Iconscout" dc:date="2017-09-19" dc:format="image/svg+xml" dc:language="en"><dc:creator><rdf:Bag><rdf:li>Vaadin Icons</rdf:li></rdf:Bag></dc:creator></rdf:Description></rdf:RDF></metadata></svg>